<svg xmlns="http://www.w3.org/2000/svg" xmlns:xlink="http://www.w3.org/1999/xlink" width="187" zoomAndPan="magnify" viewBox="0 0 140.25 30.000001" height="40" preserveAspectRatio="xMidYMid meet" version="1.0"><defs><g/><clipPath id="03277351ee"><path d="M 1.898438 5.226562 L 63.335938 5.226562 L 63.335938 19.871094 L 1.898438 19.871094 Z M 1.898438 5.226562 " clip-rule="nonzero"/></clipPath></defs><g clip-path="url(#03277351ee)"><path fill="#ffffff" d="M 1.898438 5.226562 L 63.335938 5.226562 L 63.335938 19.871094 L 1.898438 19.871094 Z M 1.898438 5.226562 " fill-opacity="1" fill-rule="nonzero"/></g><g fill="#000000" fill-opacity="1"><g transform="translate(6.848427, 15.394576)"><g><path d="M 11.101562 -13.796875 C 9.839844 -14.570312 7.945312 -14.457031 6.066406 -13.566406 C 6.109375 -13.78125 6.152344 -14 6.179688 -14.183594 C 6.210938 -14.328125 6.109375 -14.472656 5.964844 -14.5 C 5.808594 -14.527344 5.664062 -14.429688 5.636719 -14.269531 C 5.59375 -13.96875 5.523438 -13.625 5.449219 -13.238281 C 5.148438 -13.082031 4.847656 -12.878906 4.5625 -12.679688 C 2.25 -11.015625 0.0703125 -7.945312 0.890625 -4.273438 C 0.917969 -4.128906 1.0625 -4.03125 1.21875 -4.074219 C 1.363281 -4.101562 1.464844 -4.246094 1.417969 -4.402344 C 0.660156 -7.800781 2.710938 -10.671875 4.875 -12.21875 C 5.019531 -12.320312 5.164062 -12.421875 5.308594 -12.519531 C 5.035156 -11.128906 4.675781 -9.378906 4.289062 -7.457031 C 3.097656 -1.578125 2.378906 2.078125 1.992188 4.375 C 1.863281 4.1875 1.777344 3.945312 1.75 3.644531 C 1.722656 3.484375 1.59375 3.386719 1.433594 3.398438 C 1.289062 3.414062 1.175781 3.558594 1.191406 3.699219 C 1.261719 4.316406 1.507812 4.761719 1.878906 5.035156 C 1.40625 7.917969 1.5625 8.160156 1.851562 8.246094 C 1.878906 8.261719 1.921875 8.261719 1.949219 8.261719 C 2.222656 8.261719 2.410156 7.902344 2.710938 7.171875 C 2.769531 7.027344 2.710938 6.871094 2.566406 6.8125 C 2.425781 6.753906 2.265625 6.8125 2.207031 6.957031 C 2.179688 7.011719 2.164062 7.054688 2.152344 7.097656 C 2.195312 6.640625 2.28125 6.007812 2.394531 5.25 C 2.511719 5.265625 2.625 5.277344 2.753906 5.292969 C 2.769531 5.292969 2.78125 5.292969 2.78125 5.292969 C 4.257812 5.292969 6.441406 3.730469 8.347656 1.304688 C 10.613281 -1.550781 12.132812 -5.132812 12.664062 -8.75 C 13.125 -11.859375 12.0625 -13.210938 11.101562 -13.796875 Z M 12.121094 -8.835938 C 11.429688 -4.074219 9.195312 -0.644531 7.917969 0.976562 C 5.867188 3.570312 3.859375 4.734375 2.78125 4.734375 C 2.78125 4.734375 2.769531 4.734375 2.769531 4.734375 C 2.667969 4.734375 2.582031 4.71875 2.496094 4.703125 C 3.039062 1.476562 4.058594 -3.570312 4.832031 -7.34375 C 5.265625 -9.496094 5.664062 -11.429688 5.9375 -12.878906 C 7.757812 -13.855469 9.625 -14.042969 10.8125 -13.324219 C 11.992188 -12.605469 12.449219 -11.058594 12.121094 -8.835938 Z M 12.121094 -8.835938 "/></g></g></g><g fill="#000000" fill-opacity="1"><g transform="translate(19.04578, 15.394576)"><g><path d="M 5.191406 -3.113281 C 5.0625 -3.210938 4.890625 -3.183594 4.804688 -3.070312 C 4.203125 -2.292969 3.210938 -1.648438 2.453125 -1.792969 C 2.46875 -1.894531 2.480469 -1.992188 2.480469 -2.09375 C 2.582031 -3.714844 2.078125 -4.042969 1.777344 -4.101562 C 1.433594 -4.171875 1.074219 -3.914062 0.902344 -3.484375 C 0.832031 -3.515625 0.746094 -3.515625 0.675781 -3.457031 C 0.101562 -3.097656 -0.371094 -2.179688 -0.113281 -1.191406 C 0.0585938 -0.601562 0.457031 -0.230469 0.988281 -0.230469 C 1.492188 -0.230469 2.023438 -0.601562 2.292969 -1.261719 C 3.296875 -1.046875 4.503906 -1.792969 5.234375 -2.726562 C 5.335938 -2.855469 5.308594 -3.027344 5.191406 -3.113281 Z M 1.003906 -0.773438 C 0.988281 -0.773438 0.988281 -0.773438 0.988281 -0.773438 C 0.632812 -0.789062 0.472656 -1.132812 0.429688 -1.332031 C 0.285156 -1.820312 0.402344 -2.496094 0.804688 -2.867188 C 0.832031 -2.378906 1.105469 -1.851562 1.792969 -1.476562 C 1.59375 -1.019531 1.246094 -0.773438 1.003906 -0.773438 Z M 1.9375 -2.121094 C 1.921875 -2.09375 1.921875 -2.066406 1.921875 -2.035156 C 1.375 -2.394531 1.289062 -2.855469 1.390625 -3.210938 C 1.464844 -3.441406 1.605469 -3.558594 1.679688 -3.558594 C 1.75 -3.542969 1.992188 -3.269531 1.9375 -2.121094 Z M 1.9375 -2.121094 "/></g></g></g><g fill="#000000" fill-opacity="1"><g transform="translate(23.63233, 15.394576)"><g><path d="M 6.296875 -3.242188 C 6.152344 -3.3125 5.980469 -3.253906 5.921875 -3.113281 C 4.273438 0.359375 2.710938 2.136719 2.367188 2.078125 C 2.335938 2.066406 1.835938 1.578125 3.457031 -3.398438 C 3.5 -3.527344 3.601562 -3.828125 3.371094 -3.988281 C 3.15625 -4.160156 2.910156 -4 2.511719 -3.730469 C 2.078125 -3.457031 1.492188 -3.070312 1.03125 -3.125 C 2.496094 -5.652344 2.351562 -6.210938 2.023438 -6.425781 C 1.507812 -6.726562 0.761719 -5.851562 0.414062 -5.351562 C -0.285156 -4.257812 -0.273438 -3.269531 0.472656 -2.769531 C 1.234375 -2.238281 2.222656 -2.882812 2.8125 -3.269531 C 2.824219 -3.285156 2.824219 -3.285156 2.839844 -3.296875 C 2.28125 -1.535156 1.921875 -0.144531 1.792969 0.816406 C 1.636719 1.878906 1.75 2.4375 2.152344 2.597656 C 2.222656 2.609375 2.28125 2.625 2.351562 2.625 C 3.5 2.625 5.492188 -0.902344 6.425781 -2.867188 C 6.484375 -3.011719 6.425781 -3.183594 6.296875 -3.242188 Z M 0.503906 -4.230469 C 0.703125 -5.003906 1.375 -5.722656 1.679688 -5.894531 C 1.648438 -5.664062 1.492188 -5.019531 0.574219 -3.429688 C 0.472656 -3.585938 0.402344 -3.828125 0.503906 -4.230469 Z M 0.503906 -4.230469 "/></g></g></g><g fill="#000000" fill-opacity="1"><g transform="translate(29.351185, 15.394576)"><g><path d="M 5.191406 -3.113281 C 5.0625 -3.210938 4.890625 -3.183594 4.804688 -3.070312 C 4.203125 -2.292969 3.210938 -1.648438 2.453125 -1.792969 C 2.46875 -1.894531 2.480469 -1.992188 2.480469 -2.09375 C 2.582031 -3.714844 2.078125 -4.042969 1.777344 -4.101562 C 1.433594 -4.171875 1.074219 -3.914062 0.902344 -3.484375 C 0.832031 -3.515625 0.746094 -3.515625 0.675781 -3.457031 C 0.101562 -3.097656 -0.371094 -2.179688 -0.113281 -1.191406 C 0.0585938 -0.601562 0.457031 -0.230469 0.988281 -0.230469 C 1.492188 -0.230469 2.023438 -0.601562 2.292969 -1.261719 C 3.296875 -1.046875 4.503906 -1.792969 5.234375 -2.726562 C 5.335938 -2.855469 5.308594 -3.027344 5.191406 -3.113281 Z M 1.003906 -0.773438 C 0.988281 -0.773438 0.988281 -0.773438 0.988281 -0.773438 C 0.632812 -0.789062 0.472656 -1.132812 0.429688 -1.332031 C 0.285156 -1.820312 0.402344 -2.496094 0.804688 -2.867188 C 0.832031 -2.378906 1.105469 -1.851562 1.792969 -1.476562 C 1.59375 -1.019531 1.246094 -0.773438 1.003906 -0.773438 Z M 1.9375 -2.121094 C 1.921875 -2.09375 1.921875 -2.066406 1.921875 -2.035156 C 1.375 -2.394531 1.289062 -2.855469 1.390625 -3.210938 C 1.464844 -3.441406 1.605469 -3.558594 1.679688 -3.558594 C 1.75 -3.542969 1.992188 -3.269531 1.9375 -2.121094 Z M 1.9375 -2.121094 "/></g></g></g><g fill="#000000" fill-opacity="1"><g transform="translate(33.937735, 15.394576)"><g><path d="M 12.105469 -8.460938 C 11.917969 -8.71875 11.085938 -8.878906 2.179688 -8.675781 C 2.46875 -9.839844 2.726562 -10.886719 2.953125 -11.730469 C 2.996094 -11.890625 2.910156 -12.035156 2.769531 -12.078125 C 2.625 -12.121094 2.46875 -12.035156 2.425781 -11.890625 C 2.179688 -10.988281 1.90625 -9.894531 1.605469 -8.664062 C 0.816406 -8.648438 -0.0429688 -8.632812 -0.976562 -8.605469 C -2.25 -8.578125 -3.253906 -8.546875 -3.644531 -8.546875 C -3.800781 -8.546875 -3.929688 -8.417969 -3.929688 -8.277344 C -3.929688 -8.117188 -3.800781 -7.988281 -3.644531 -7.988281 C -3.242188 -8.003906 -2.238281 -8.015625 -0.960938 -8.058594 C -0.285156 -8.074219 0.546875 -8.089844 1.476562 -8.117188 C 0.859375 -5.507812 0.15625 -2.378906 -0.472656 0.675781 C -0.933594 2.910156 -1.304688 4.847656 -1.550781 6.269531 C -1.679688 7.011719 -1.765625 7.601562 -1.808594 8.003906 C -1.863281 8.546875 -1.894531 8.863281 -1.621094 8.964844 C -1.578125 8.964844 -1.550781 8.976562 -1.507812 8.976562 C -1.261719 8.976562 -1.132812 8.632812 -1.019531 8.320312 C -0.960938 8.175781 -1.03125 8.015625 -1.175781 7.960938 C -1.203125 7.960938 -1.21875 7.945312 -1.246094 7.945312 C -1.105469 6.828125 -0.675781 4.316406 0.15625 0.359375 C 0.773438 -2.640625 1.449219 -5.636719 2.050781 -8.132812 C 5.996094 -8.21875 11.117188 -8.289062 11.703125 -8.089844 C 11.804688 -8.003906 11.933594 -8.003906 12.046875 -8.074219 C 12.164062 -8.160156 12.191406 -8.332031 12.105469 -8.460938 Z M 12.105469 -8.460938 "/></g></g></g><g fill="#000000" fill-opacity="1"><g transform="translate(35.844016, 15.394576)"><g><path d="M 6.785156 -3.269531 C 6.65625 -3.355469 6.484375 -3.3125 6.410156 -3.183594 C 4.375 0.101562 3.65625 0.0273438 3.585938 0.015625 C 3.441406 -0.0273438 3.285156 -0.316406 3.242188 -1.019531 C 3.226562 -1.332031 3.15625 -2.28125 2.523438 -2.367188 C 1.792969 -2.46875 0.917969 -1.191406 0.128906 0.457031 C 0.617188 -1.722656 1.320312 -4.71875 1.835938 -6.839844 C 3.757812 -10.296875 4.734375 -12.894531 4.332031 -13.453125 C 4.246094 -13.582031 4.101562 -13.625 3.957031 -13.597656 C 3.34375 -13.480469 2.378906 -11.386719 1.734375 -8.734375 C 1.707031 -8.632812 -0.859375 1.851562 -0.945312 3.140625 C -0.945312 3.285156 -0.859375 3.398438 -0.71875 3.429688 C -0.703125 3.429688 -0.6875 3.429688 -0.675781 3.429688 C -0.558594 3.429688 -0.445312 3.355469 -0.402344 3.253906 C 0.847656 -0.328125 2.066406 -1.820312 2.425781 -1.820312 C 2.4375 -1.820312 2.4375 -1.820312 2.4375 -1.820312 C 2.496094 -1.820312 2.652344 -1.648438 2.695312 -0.988281 C 2.710938 -0.644531 2.78125 0.371094 3.441406 0.546875 C 3.730469 0.617188 4.574219 0.832031 6.871094 -2.898438 C 6.957031 -3.027344 6.914062 -3.199219 6.785156 -3.269531 Z M 3.859375 -12.808594 C 3.742188 -12.234375 3.34375 -11 2.378906 -9.066406 C 2.925781 -11.128906 3.515625 -12.320312 3.859375 -12.808594 Z M 3.859375 -12.808594 "/></g></g></g><g fill="#000000" fill-opacity="1"><g transform="translate(42.021525, 15.394576)"><g><path d="M 7.011719 -3.15625 C 6.925781 -3.285156 6.753906 -3.3125 6.625 -3.226562 C 5.394531 -2.425781 4.128906 -1.535156 2.925781 -0.414062 C 3.097656 -1.476562 3.269531 -2.609375 3.429688 -3.800781 C 3.457031 -3.929688 3.371094 -4.058594 3.242188 -4.101562 C 3.125 -4.144531 2.984375 -4.085938 2.925781 -3.972656 C 2.640625 -3.484375 2.007812 -2.480469 1.449219 -1.808594 C 1.246094 -1.5625 1.046875 -1.433594 0.945312 -1.507812 C 0.703125 -1.648438 0.53125 -2.640625 1.089844 -4 C 1.148438 -4.144531 1.074219 -4.304688 0.945312 -4.359375 C 0.804688 -4.417969 0.644531 -4.347656 0.589844 -4.203125 C 0 -2.769531 0.0273438 -1.40625 0.675781 -1.03125 C 0.832031 -0.917969 1.289062 -0.761719 1.863281 -1.449219 C 2.164062 -1.808594 2.453125 -2.207031 2.710938 -2.597656 C 2.566406 -1.605469 2.425781 -0.660156 2.265625 0.242188 C 1.0625 1.476562 -0.0703125 2.96875 -1.046875 4.863281 C -2.683594 8.003906 -2.984375 11.488281 -2.164062 12.492188 C -2.007812 12.691406 -1.808594 12.792969 -1.59375 12.792969 C -1.519531 12.792969 -1.464844 12.777344 -1.390625 12.765625 C -0.457031 12.492188 0.371094 10.425781 0.917969 8.734375 C 1.59375 6.625 2.207031 3.871094 2.78125 0.503906 C 4.117188 -0.832031 5.535156 -1.863281 6.925781 -2.769531 C 7.054688 -2.855469 7.097656 -3.027344 7.011719 -3.15625 Z M 0.386719 8.5625 C -0.644531 11.832031 -1.390625 12.191406 -1.535156 12.234375 C -1.59375 12.25 -1.648438 12.25 -1.734375 12.148438 C -2.25 11.515625 -2.292969 8.460938 -0.558594 5.105469 C 0.242188 3.570312 1.132812 2.308594 2.09375 1.234375 C 1.578125 4.203125 1.003906 6.65625 0.386719 8.5625 Z M 0.386719 8.5625 "/></g></g></g><g fill="#000000" fill-opacity="1"><g transform="translate(48.371034, 15.394576)"><g/></g></g><g fill="#000000" fill-opacity="1"><g transform="translate(52.771253, 15.394576)"><g><path d="M 14 -3.269531 C 13.914062 -3.398438 13.738281 -3.429688 13.625 -3.34375 C 12.164062 -2.308594 10.84375 -1.320312 9.636719 -0.386719 C 8.820312 -1.734375 6.640625 -2.625 3.730469 -3.800781 C 3.355469 -3.945312 2.984375 -4.101562 2.597656 -4.257812 C 1.449219 -4.71875 1.046875 -5.4375 1.363281 -6.425781 C 1.792969 -7.800781 3.601562 -9.625 6.050781 -11.1875 C 8.390625 -12.664062 10.683594 -13.496094 11.761719 -13.253906 C 12.105469 -13.179688 12.492188 -12.980469 12.378906 -12.175781 C 12.347656 -12.035156 12.464844 -11.890625 12.605469 -11.859375 C 12.765625 -11.847656 12.910156 -11.949219 12.921875 -12.105469 C 13.09375 -13.324219 12.347656 -13.683594 11.890625 -13.796875 C 9.28125 -14.386719 1.894531 -9.953125 0.832031 -6.597656 C 0.445312 -5.335938 0.988281 -4.316406 2.378906 -3.742188 C 2.769531 -3.585938 3.15625 -3.429688 3.527344 -3.285156 C 6.65625 -2.023438 8.578125 -1.191406 9.207031 -0.0585938 C 4.128906 3.914062 1.550781 6.753906 1.980469 7.972656 C 2.050781 8.175781 2.265625 8.476562 2.867188 8.476562 C 2.910156 8.476562 2.96875 8.476562 3.011719 8.476562 C 4.933594 8.332031 9.121094 5.464844 9.925781 1.40625 C 10.027344 0.933594 9.996094 0.503906 9.882812 0.113281 C 11.101562 -0.816406 12.449219 -1.820312 13.941406 -2.882812 C 14.070312 -2.984375 14.097656 -3.15625 14 -3.269531 Z M 9.378906 1.304688 C 8.605469 5.175781 4.546875 7.800781 2.96875 7.929688 C 2.824219 7.929688 2.554688 7.929688 2.511719 7.789062 C 2.351562 7.359375 3.15625 6.136719 4.5625 4.71875 C 5.75 3.5 7.371094 2.078125 9.394531 0.488281 C 9.453125 0.746094 9.4375 1.003906 9.378906 1.304688 Z M 9.378906 1.304688 "/></g></g></g><g fill="#000000" fill-opacity="1"><g transform="translate(66.215582, 15.394576)"><g><path d="M 4.734375 -3.253906 C 4.605469 -3.328125 4.433594 -3.296875 4.359375 -3.167969 C 3.386719 -1.691406 1.765625 0.773438 0.703125 0.546875 C 0.53125 0.503906 0.386719 0.386719 0.285156 0.199219 C 0 -0.316406 0.0429688 -1.347656 0.371094 -2.25 C 0.730469 -3.210938 1.160156 -3.457031 1.246094 -3.441406 C 1.261719 -3.429688 1.347656 -3.242188 1.234375 -2.796875 C 1.191406 -2.640625 1.277344 -2.496094 1.417969 -2.453125 C 1.578125 -2.425781 1.722656 -2.511719 1.765625 -2.652344 C 2.035156 -3.6875 1.5625 -3.914062 1.417969 -3.972656 C 0.890625 -4.128906 0.242188 -3.5 -0.144531 -2.4375 C -0.472656 -1.550781 -0.617188 -0.285156 -0.1875 0.472656 C -0.015625 0.804688 0.257812 1.003906 0.589844 1.074219 C 0.675781 1.105469 0.761719 1.105469 0.847656 1.105469 C 2.09375 1.105469 3.441406 -0.773438 4.820312 -2.867188 C 4.90625 -2.996094 4.863281 -3.167969 4.734375 -3.253906 Z M 4.734375 -3.253906 "/></g></g></g><g fill="#000000" fill-opacity="1"><g transform="translate(70.458147, 15.394576)"><g><path d="M 6.785156 -3.269531 C 6.65625 -3.355469 6.484375 -3.3125 6.410156 -3.183594 C 4.375 0.101562 3.65625 0.0273438 3.585938 0.015625 C 3.441406 -0.0273438 3.285156 -0.316406 3.242188 -1.019531 C 3.226562 -1.332031 3.15625 -2.28125 2.523438 -2.367188 C 1.792969 -2.46875 0.917969 -1.191406 0.128906 0.457031 C 0.617188 -1.722656 1.320312 -4.71875 1.835938 -6.839844 C 3.757812 -10.296875 4.734375 -12.894531 4.332031 -13.453125 C 4.246094 -13.582031 4.101562 -13.625 3.957031 -13.597656 C 3.34375 -13.480469 2.378906 -11.386719 1.734375 -8.734375 C 1.707031 -8.632812 -0.859375 1.851562 -0.945312 3.140625 C -0.945312 3.285156 -0.859375 3.398438 -0.71875 3.429688 C -0.703125 3.429688 -0.6875 3.429688 -0.675781 3.429688 C -0.558594 3.429688 -0.445312 3.355469 -0.402344 3.253906 C 0.847656 -0.328125 2.066406 -1.820312 2.425781 -1.820312 C 2.4375 -1.820312 2.4375 -1.820312 2.4375 -1.820312 C 2.496094 -1.820312 2.652344 -1.648438 2.695312 -0.988281 C 2.710938 -0.644531 2.78125 0.371094 3.441406 0.546875 C 3.730469 0.617188 4.574219 0.832031 6.871094 -2.898438 C 6.957031 -3.027344 6.914062 -3.199219 6.785156 -3.269531 Z M 3.859375 -12.808594 C 3.742188 -12.234375 3.34375 -11 2.378906 -9.066406 C 2.925781 -11.128906 3.515625 -12.320312 3.859375 -12.808594 Z M 3.859375 -12.808594 "/></g></g></g><g fill="#000000" fill-opacity="1"><g transform="translate(76.635657, 15.394576)"><g><path d="M 8.777344 -3.226562 C 8.675781 -3.328125 8.492188 -3.328125 8.390625 -3.226562 C 7.660156 -2.46875 6.871094 -2.121094 6.28125 -2.308594 C 5.792969 -2.453125 5.449219 -2.953125 5.292969 -3.773438 C 5.265625 -3.902344 5.148438 -4 5.019531 -4 C 4.875 -3.988281 4.761719 -3.886719 4.746094 -3.757812 C 4.546875 -2.308594 3.671875 -0.15625 3.3125 0.0703125 C 3.269531 0.0273438 3.199219 -0.101562 3.140625 -0.445312 C 3.054688 -0.875 3.027344 -1.433594 3.027344 -1.777344 C 3.027344 -1.894531 2.941406 -2.007812 2.824219 -2.035156 C 2.695312 -2.078125 2.582031 -2.023438 2.511719 -1.921875 C 1.578125 -0.457031 1.175781 0.113281 0.847656 0.429688 C 0.6875 0.574219 0.589844 0.601562 0.558594 0.574219 C 0.300781 0.414062 0.113281 -1.148438 1.148438 -4.015625 C 1.203125 -4.160156 1.117188 -4.316406 0.976562 -4.375 C 0.832031 -4.417969 0.675781 -4.347656 0.632812 -4.203125 C -0.300781 -1.636719 -0.457031 0.574219 0.257812 1.046875 C 0.328125 1.089844 0.445312 1.132812 0.574219 1.132812 C 0.746094 1.132812 0.960938 1.0625 1.21875 0.832031 C 1.519531 0.546875 1.863281 0.101562 2.511719 -0.902344 C 2.539062 -0.703125 2.554688 -0.515625 2.597656 -0.328125 C 2.640625 -0.0859375 2.796875 0.644531 3.296875 0.632812 C 3.585938 0.632812 3.988281 0.414062 4.589844 -1.160156 C 4.777344 -1.648438 4.949219 -2.195312 5.078125 -2.683594 C 5.378906 -2.121094 5.792969 -1.878906 6.125 -1.777344 C 6.914062 -1.535156 7.886719 -1.921875 8.777344 -2.839844 C 8.890625 -2.941406 8.890625 -3.113281 8.777344 -3.226562 Z M 8.777344 -3.226562 "/></g></g></g><g fill="#000000" fill-opacity="1"><g transform="translate(84.791121, 15.394576)"><g><path d="M 5.996094 -3.183594 C 5.867188 -3.242188 5.695312 -3.183594 5.636719 -3.054688 C 4.546875 -0.832031 3.730469 -0.128906 3.34375 -0.199219 C 3.183594 -0.230469 2.667969 -0.53125 2.539062 -3.039062 C 2.539062 -3.15625 2.453125 -3.253906 2.351562 -3.285156 C 2.238281 -3.3125 2.109375 -3.285156 2.050781 -3.183594 C 1.964844 -3.082031 1.878906 -2.96875 1.792969 -2.839844 C 1.433594 -2.351562 0.960938 -1.691406 0.386719 -1.074219 C 0.300781 -0.976562 0.230469 -0.917969 0.1875 -0.890625 C 0.0859375 -1.390625 0.617188 -3.3125 1.464844 -3.914062 C 1.707031 -4.085938 2.035156 -4.214844 2.480469 -3.699219 C 2.582031 -3.585938 2.753906 -3.570312 2.867188 -3.671875 C 2.984375 -3.757812 2.996094 -3.945312 2.910156 -4.058594 C 2.367188 -4.691406 1.851562 -4.675781 1.507812 -4.5625 C 0.402344 -4.171875 -0.34375 -2.050781 -0.371094 -1.074219 C -0.386719 -0.675781 -0.273438 -0.414062 -0.0429688 -0.328125 C 0.316406 -0.1875 0.675781 -0.574219 0.789062 -0.703125 C 1.277344 -1.234375 1.722656 -1.808594 2.035156 -2.25 C 2.195312 -0.617188 2.582031 0.199219 3.226562 0.34375 C 3.285156 0.34375 3.34375 0.359375 3.398438 0.359375 C 4.375 0.359375 5.421875 -1.347656 6.125 -2.8125 C 6.195312 -2.953125 6.136719 -3.113281 5.996094 -3.183594 Z M 5.996094 -3.183594 "/></g></g></g><g fill="#000000" fill-opacity="1"><g transform="translate(90.122982, 15.394576)"><g><path d="M 6.296875 -3.242188 C 6.152344 -3.3125 5.980469 -3.253906 5.921875 -3.113281 C 4.273438 0.359375 2.710938 2.136719 2.367188 2.078125 C 2.335938 2.066406 1.835938 1.578125 3.457031 -3.398438 C 3.5 -3.527344 3.601562 -3.828125 3.371094 -3.988281 C 3.15625 -4.160156 2.910156 -4 2.511719 -3.730469 C 2.078125 -3.457031 1.492188 -3.070312 1.03125 -3.125 C 2.496094 -5.652344 2.351562 -6.210938 2.023438 -6.425781 C 1.507812 -6.726562 0.761719 -5.851562 0.414062 -5.351562 C -0.285156 -4.257812 -0.273438 -3.269531 0.472656 -2.769531 C 1.234375 -2.238281 2.222656 -2.882812 2.8125 -3.269531 C 2.824219 -3.285156 2.824219 -3.285156 2.839844 -3.296875 C 2.28125 -1.535156 1.921875 -0.144531 1.792969 0.816406 C 1.636719 1.878906 1.75 2.4375 2.152344 2.597656 C 2.222656 2.609375 2.28125 2.625 2.351562 2.625 C 3.5 2.625 5.492188 -0.902344 6.425781 -2.867188 C 6.484375 -3.011719 6.425781 -3.183594 6.296875 -3.242188 Z M 0.503906 -4.230469 C 0.703125 -5.003906 1.375 -5.722656 1.679688 -5.894531 C 1.648438 -5.664062 1.492188 -5.019531 0.574219 -3.429688 C 0.472656 -3.585938 0.402344 -3.828125 0.503906 -4.230469 Z M 0.503906 -4.230469 "/></g></g></g><g fill="#000000" fill-opacity="1"><g transform="translate(95.841837, 15.394576)"><g><path d="M 6.167969 -3.226562 C 6.039062 -3.296875 5.867188 -3.253906 5.792969 -3.125 C 4.574219 -1.175781 2.378906 0.472656 1.5625 0.316406 C 1.433594 0.300781 1.261719 0.230469 1.175781 -0.101562 C 1.21875 -0.15625 1.289062 -0.214844 1.363281 -0.273438 C 1.59375 -0.472656 1.921875 -0.761719 2.207031 -1.117188 C 2.667969 -1.722656 2.867188 -2.453125 2.695312 -2.867188 C 2.609375 -3.039062 2.46875 -3.15625 2.28125 -3.167969 C 1.878906 -3.199219 1.417969 -2.796875 0.875 -1.949219 C 0.617188 -1.550781 0.371094 -1.105469 0.15625 -0.632812 C 0.601562 -2.625 1.148438 -5.019531 1.5625 -6.8125 C 3.484375 -10.253906 4.445312 -12.835938 4.042969 -13.394531 C 3.957031 -13.511719 3.816406 -13.566406 3.671875 -13.539062 C 3.054688 -13.425781 2.09375 -11.332031 1.449219 -8.675781 C 1.347656 -8.277344 1.203125 -7.6875 1.046875 -7 C 1.03125 -6.984375 1.03125 -6.957031 1.03125 -6.925781 C 0.214844 -3.472656 -1.160156 2.640625 -1.175781 3.113281 C -1.175781 3.253906 -1.074219 3.371094 -0.945312 3.386719 C -0.933594 3.398438 -0.917969 3.398438 -0.890625 3.398438 C -0.773438 3.398438 -0.675781 3.3125 -0.632812 3.199219 L -0.574219 2.996094 C -0.101562 1.507812 0.503906 -0.371094 1.332031 -1.648438 C 1.820312 -2.410156 2.109375 -2.582031 2.195312 -2.609375 C 2.238281 -2.453125 2.164062 -1.964844 1.765625 -1.449219 C 1.519531 -1.148438 1.21875 -0.875 0.988281 -0.6875 C 0.703125 -0.429688 0.574219 -0.316406 0.601562 -0.113281 C 0.746094 0.589844 1.148438 0.804688 1.464844 0.859375 C 1.535156 0.875 1.605469 0.875 1.679688 0.875 C 3.054688 0.875 5.292969 -1.289062 6.253906 -2.839844 C 6.339844 -2.96875 6.296875 -3.140625 6.167969 -3.226562 Z M 3.570312 -12.75 C 3.472656 -12.164062 3.054688 -10.941406 2.09375 -8.992188 C 2.652344 -11.074219 3.242188 -12.261719 3.570312 -12.75 Z M 3.570312 -12.75 "/></g></g></g></svg>